<?xml version="1.0" encoding="UTF-8"?>
<svg width="76px" height="76px" viewBox="0 0 76 76" version="1.1" xmlns="http://www.w3.org/2000/svg" xmlns:xlink="http://www.w3.org/1999/xlink">
    <!-- Generator: sketchtool 59.1 (101010) - https://sketch.com -->
    <title>1D0ECBF6-89FA-4803-857C-BD34382FB0D3</title>
    <desc>Created with sketchtool.</desc>
    <g id="Page-1" stroke="none" stroke-width="1" fill="none" fill-rule="evenodd">
        <g id="Maquette_test" transform="translate(-1478.000000, -3710.000000)">
            <g id="FOOTER" transform="translate(0.000000, 3275.000000)">
                <g id="Btn_fleche" transform="translate(1478.000000, 435.000000)">
                    <circle id="Oval" stroke="#FFFFFF" stroke-width="0.75" cx="38" cy="38" r="37.625"></circle>
                    <path d="M37.8941173,25.6360669 C38.0951798,25.4410297 38.4163046,25.4459911 38.6112458,25.6471467 L38.6112458,25.6471467 L46.3641015,33.6471467 C46.558977,33.8482344 46.553941,34.169226 46.3528533,34.3641015 C46.1517656,34.558977 45.830774,34.553941 45.6358985,34.3528533 L45.6358985,34.3528533 L38.5139736,27.0039736 L38.711906,49.0562116 C38.7141385,49.3051107 38.5366419,49.5137282 38.3005097,49.5587935 L38.209448,49.5677856 C37.9294366,49.5702764 37.7004064,49.3453183 37.6978948,49.0653068 L37.6978948,49.0653068 L37.5039736,27.4269736 L30.353027,34.3639331 C30.1743651,34.537241 29.9008889,34.5526394 29.7053874,34.4127567 L29.6360669,34.353027 C29.4410955,34.1520323 29.4459783,33.8310383 29.646973,33.6360669 L29.646973,33.6360669 Z" id="Combined-Shape" fill="#FFFFFF" fill-rule="nonzero"></path>
                </g>
            </g>
        </g>
    </g>
</svg>